<?xml version="1.0" standalone="no"?>
<!DOCTYPE svg PUBLIC "-//W3C//DTD SVG 20010904//EN"
 "http://www.w3.org/TR/2001/REC-SVG-20010904/DTD/svg10.dtd">
<svg version="1.0" xmlns="http://www.w3.org/2000/svg"
 width="1080.000000pt" height="1080.000000pt" viewBox="0 0 1080.000000 1080.000000"
 preserveAspectRatio="xMidYMid meet">
<metadata>
Created by potrace 1.11, written by Peter Selinger 2001-2013
</metadata>
<g transform="translate(0.000000,1080.000000) scale(0.100000,-0.100000)"
fill="#000000" stroke="none">
<path d="M4948 10194 c-2 -1 -57 -5 -123 -9 -275 -15 -286 -15 -425 -30 -25
-3 -70 -7 -100 -10 -162 -16 -261 -26 -285 -31 -46 -9 -145 -24 -196 -30 -94
-9 -290 -52 -389 -85 -177 -57 -399 -176 -540 -288 -347 -276 -578 -658 -661
-1091 -19 -102 -22 -153 -25 -450 -2 -309 5 -451 30 -570 2 -14 10 -51 16 -84
14 -74 64 -241 97 -326 35 -92 69 -162 269 -563 l178 -355 -25 -23 c-42 -41
-168 -189 -224 -264 -16 -22 -32 -42 -36 -45 -12 -11 -157 -228 -196 -295 -87
-148 -111 -194 -165 -310 -78 -166 -122 -277 -173 -435 -38 -120 -89 -311
-101 -380 -3 -14 -12 -61 -20 -105 -8 -44 -17 -102 -20 -130 -3 -27 -7 -56 -9
-62 -10 -31 -20 -246 -19 -438 0 -217 9 -361 28 -470 3 -16 8 -52 12 -80 3
-27 8 -57 9 -65 2 -8 11 -51 20 -95 9 -44 18 -88 20 -97 2 -9 13 -52 25 -95
112 -406 264 -742 497 -1094 58 -87 248 -333 298 -385 11 -11 45 -47 76 -80
175 -184 394 -370 577 -488 172 -112 398 -193 627 -225 91 -12 2692 -13 2795
0 41 5 107 16 145 25 39 9 77 17 85 19 45 9 200 69 276 106 198 97 423 271
673 520 304 304 570 700 744 1109 113 263 212 613 243 850 3 25 7 52 9 60 3 8
7 42 10 75 3 33 8 78 11 100 9 70 11 507 3 586 -14 147 -20 204 -25 234 -33
196 -41 235 -81 395 -71 278 -203 605 -338 840 -21 36 -46 81 -57 100 -91 158
-302 439 -445 589 l-41 44 183 366 c235 469 248 500 302 660 53 162 78 277
101 466 9 80 9 684 -1 760 -13 100 -49 269 -66 310 -5 11 -23 61 -41 110 -161
445 -534 831 -985 1020 -133 56 -364 113 -520 130 -27 3 -61 7 -75 10 -21 5
-63 11 -200 30 -14 1 -56 6 -95 9 -38 4 -86 9 -105 11 -19 2 -62 7 -95 10 -33
3 -76 7 -95 10 -19 2 -87 7 -150 10 -63 4 -146 9 -185 12 -70 5 -1023 12
-1027 7z m997 -1207 c33 -3 112 -8 175 -12 63 -4 122 -9 130 -10 9 -2 47 -6
85 -9 152 -14 194 -19 340 -40 136 -20 183 -27 216 -31 189 -25 376 -165 455
-340 46 -104 52 -155 49 -435 -3 -307 -5 -322 -58 -475 -21 -63 -303 -635
-312 -635 -3 0 -40 17 -83 39 -244 123 -564 233 -832 286 -270 54 -436 70
-715 70 -172 -1 -352 -9 -405 -19 -14 -2 -47 -7 -75 -11 -27 -3 -86 -12 -130
-20 -44 -8 -96 -17 -115 -20 -59 -10 -294 -74 -402 -109 -93 -31 -120 -40
-183 -67 -11 -5 -42 -17 -70 -28 -27 -10 -94 -40 -148 -66 -55 -25 -100 -45
-102 -43 -2 2 -68 134 -147 293 -205 414 -215 451 -216 821 -1 252 8 326 54
422 54 116 156 221 272 280 48 25 173 59 244 66 26 3 78 10 115 17 37 6 82 12
98 14 89 12 116 15 180 21 39 3 81 8 95 9 104 12 220 21 400 30 69 4 126 8
128 10 5 4 894 -3 957 -8z"/>
</g>
</svg>
